#N canvas 904 23 845 902 10;
#X obj 94 346 *~;
#X obj 94 377 dac~;
#X obj 88 104 r onOff;
#X obj 68 315 vline~;
#X obj 137 302 osc~ 1220;
#X obj 86 152 metro 500;
#X msg 70 215 1 10 \, 0 50 10;
#X obj 88 128 tgl 15 0 empty empty empty 17 7 0 10 -262144 -1 -1 0
1;
#X obj 157 56 r tempoChange;
#X floatatom 157 87 5 0 0 0 - - -;
#X obj 157 104 expr (60/$f1)*1000;
#X floatatom 157 122 5 0 0 0 - - -;
#X text 243 55 receives float;
#X text 189 85 bpm;
#X text 273 103 convert to ms;
#X text 191 122 ms;
#X text 197 301 sound source;
#X text 126 378 output;
#X text 159 214 noteOn \, noteOff attributes;
#X text 146 151 sends bangs every X ms;
#X text 24 85 connected to switch;
#X connect 0 0 1 0;
#X connect 0 0 1 1;
#X connect 2 0 7 0;
#X connect 3 0 0 0;
#X connect 4 0 0 1;
#X connect 5 0 6 0;
#X connect 6 0 3 0;
#X connect 7 0 5 0;
#X connect 8 0 9 0;
#X connect 9 0 10 0;
#X connect 10 0 11 0;
#X connect 11 0 5 1;
