#N canvas 0 23 1363 969 10;
#X msg 126 14 stop;
#X obj 93 43 bng 15 250 50 0 empty empty empty 17 7 0 10 -262144 -1
-1;
#X obj 127 61 metro;
#X obj 97 86 bng 15 250 50 0 empty empty empty 17 7 0 10 -262144 -1
-1;
#X floatatom 173 39 5 0 60000 0 Ms - -;
#X obj 180 237 tgl 15 1 empty empty empty 17 7 0 10 -261234 -1 -1 1
1;
#X obj 196 237 tgl 15 0 empty empty empty 17 7 0 10 -262144 -1 -1 0
1;
#X obj 212 237 tgl 15 0 empty empty empty 17 7 0 10 -262144 -1 -1 0
1;
#X obj 228 237 tgl 15 0 empty empty empty 17 7 0 10 -262144 -1 -1 0
1;
#X obj 244 237 tgl 15 1 empty empty empty 17 7 0 10 -261234 -1 -1 1
1;
#X obj 260 237 tgl 15 0 empty empty empty 17 7 0 10 -262144 -1 -1 0
1;
#X obj 276 237 tgl 15 0 empty empty empty 17 7 0 10 -262144 -1 -1 0
1;
#X obj 292 237 tgl 15 0 empty empty empty 17 7 0 10 -262144 -1 -1 0
1;
#X obj 308 237 tgl 15 1 empty empty empty 17 7 0 10 -261234 -1 -1 1
1;
#X obj 324 237 tgl 15 0 empty empty empty 17 7 0 10 -262144 -1 -1 0
1;
#X obj 340 237 tgl 15 0 empty empty empty 17 7 0 10 -262144 -1 -1 0
1;
#X obj 356 237 tgl 15 0 empty empty empty 17 7 0 10 -262144 -1 -1 0
1;
#X obj 372 237 tgl 15 1 empty empty empty 17 7 0 10 -261234 -1 -1 1
1;
#X obj 388 237 tgl 15 0 empty empty empty 17 7 0 10 -262144 -1 -1 0
1;
#X obj 404 237 tgl 15 0 empty empty empty 17 7 0 10 -262144 -1 -1 0
1;
#X obj 420 237 tgl 15 0 empty empty empty 17 7 0 10 -262144 -1 -1 0
1;
#X obj 179 221 hradio 16 1 0 16 empty empty empty 0 -8 0 10 -262144
-1 -1 14;
#X obj 123 125 +;
#X obj 153 108 + 1;
#X obj 123 160 %;
#X floatatom 182 143 5 0 16 0 Length - -;
#X floatatom 122 196 5 0 0 0 - - -;
#X obj 171 256 sel 0 1 2 3 4 5 6 7 8 9 10 11 12 13 14 15;
#X obj 172 195 i;
#X obj 171 288 spigot;
#X obj 176 308 spigot;
#X obj 183 328 spigot;
#X obj 188 348 spigot;
#X obj 235 288 spigot;
#X obj 240 308 spigot;
#X obj 247 328 spigot;
#X obj 252 348 spigot;
#X obj 299 288 spigot;
#X obj 304 308 spigot;
#X obj 311 328 spigot;
#X obj 316 348 spigot;
#X obj 362 288 spigot;
#X obj 367 308 spigot;
#X obj 374 328 spigot;
#X obj 379 348 spigot;
#X obj 486 369 t b;
#X obj 487 391 bng 15 250 50 0 empty empty empty 17 7 0 10 -262144
-1 -1;
#X connect 0 0 2 0;
#X connect 1 0 2 0;
#X connect 2 0 3 0;
#X connect 2 0 22 0;
#X connect 4 0 2 1;
#X connect 5 0 29 1;
#X connect 6 0 30 1;
#X connect 7 0 31 1;
#X connect 8 0 32 1;
#X connect 9 0 33 1;
#X connect 10 0 34 1;
#X connect 11 0 35 1;
#X connect 12 0 36 1;
#X connect 13 0 37 1;
#X connect 14 0 38 1;
#X connect 15 0 39 1;
#X connect 16 0 40 1;
#X connect 17 0 41 1;
#X connect 18 0 42 1;
#X connect 19 0 43 1;
#X connect 20 0 44 1;
#X connect 22 0 23 0;
#X connect 22 0 24 0;
#X connect 23 0 22 1;
#X connect 24 0 26 0;
#X connect 24 0 28 0;
#X connect 25 0 24 1;
#X connect 27 0 29 0;
#X connect 27 1 30 0;
#X connect 27 2 31 0;
#X connect 27 3 32 0;
#X connect 27 4 33 0;
#X connect 27 5 34 0;
#X connect 27 6 35 0;
#X connect 27 7 36 0;
#X connect 27 8 37 0;
#X connect 27 9 38 0;
#X connect 27 10 39 0;
#X connect 27 11 40 0;
#X connect 27 12 41 0;
#X connect 27 13 42 0;
#X connect 27 14 43 0;
#X connect 27 15 44 0;
#X connect 28 0 21 0;
#X connect 28 0 27 0;
#X connect 29 0 45 0;
#X connect 30 0 45 0;
#X connect 31 0 45 0;
#X connect 32 0 45 0;
#X connect 33 0 45 0;
#X connect 34 0 45 0;
#X connect 35 0 45 0;
#X connect 36 0 45 0;
#X connect 37 0 45 0;
#X connect 38 0 45 0;
#X connect 39 0 45 0;
#X connect 40 0 45 0;
#X connect 41 0 45 0;
#X connect 42 0 45 0;
#X connect 43 0 45 0;
#X connect 44 0 45 0;
#X connect 45 0 46 0;
